<?xml version="1.0" encoding="UTF-8"?>
<svg version="1.1" xmlns="http://www.w3.org/2000/svg" width="512" height="512">
<path d="M0 0 C2.53593573 2.30954252 5.01780133 4.67324398 7.49316406 7.04736328 C8.29802246 7.81137451 8.29802246 7.81137451 9.11914062 8.59082031 C17.0760147 16.176249 24.15746787 24.04768144 30.49316406 33.04736328 C30.92306641 33.64935547 31.35296875 34.25134766 31.79589844 34.87158203 C52.12030459 63.65212797 65.37663737 99.26915743 65.73144531 134.73486328 C65.74123917 135.54667053 65.75103302 136.35847778 65.76112366 137.19488525 C66.00496749 162.65721862 63.8812438 185.83668227 55.49316406 210.04736328 C55.26935059 210.69930664 55.04553711 211.35125 54.81494141 212.02294922 C47.50149415 232.8326834 35.93270103 252.17878364 21.80566406 269.04736328 C21.35505615 269.59062256 20.90444824 270.13388184 20.44018555 270.69360352 C18.39987592 273.08619146 16.44071122 275.08513247 13.88378906 276.92626953 C11.21375674 278.85711505 9.86431978 280.03266738 8.49316406 283.04736328 C8.24944312 289.84486486 10.61393405 296.59813984 12.49316406 303.04736328 C12.79448242 304.11067871 13.09580078 305.17399414 13.40625 306.26953125 C16.8089322 318.16847061 20.51370405 329.89669698 25.36425781 341.28955078 C28.05461322 347.86183769 28.56050745 354.00784563 25.93066406 360.67236328 C23.10779244 366.48888524 18.45824806 370.57753183 12.49316406 373.04736328 C-12.71461799 377.63428659 -50.57184691 357.09912074 -70.77832031 343.52099609 C-72.7574895 342.1018818 -74.72630947 340.66936685 -76.69433594 339.23486328 C-80.91524843 336.23384464 -84.11674385 334.40562857 -89.44433594 334.79736328 C-91.47409624 335.16810794 -93.49548038 335.58711631 -95.50683594 336.04736328 C-137.37988015 343.15217584 -179.34913841 334.99404042 -216.50683594 315.04736328 C-218.20839844 314.15984375 -218.20839844 314.15984375 -219.94433594 313.25439453 C-236.52546852 304.25375659 -251.24669463 292.40350908 -264.50683594 279.04736328 C-265.0438916 278.50756836 -265.58094727 277.96777344 -266.13427734 277.41162109 C-301.03071796 241.92188706 -319.67370709 193.35713031 -319.54199219 143.80908203 C-318.5604229 89.35535741 -295.77414905 40.73285245 -256.94042969 3.10986328 C-244.27830587 -8.75251749 -229.96381252 -18.17372635 -214.50683594 -25.95263672 C-213.79962402 -26.31437988 -213.09241211 -26.67612305 -212.36376953 -27.04882812 C-144.17553387 -61.66747085 -57.11946463 -51.0354044 0 0 Z " fill="#FBBE49" transform="translate(382.5068359375,88.95263671875)"/>
<path d="M0 0 C3.61415728 2.76061136 6.83411921 5.7401413 10 9 C10.56074219 9.54011719 11.12148438 10.08023438 11.69921875 10.63671875 C23.55100046 22.98621308 26.50645095 39.8065063 26.1875 56.1875 C26.17240904 57.53449006 26.15872852 58.88149668 26.14648438 60.22851562 C26.11145646 63.48611152 26.06233662 66.74283173 26 70 C27.82144531 69.95166016 27.82144531 69.95166016 29.6796875 69.90234375 C35.76744555 69.91172603 41.27726211 71.58539088 45.8984375 75.68359375 C50.66759901 81.09252083 52.24815656 84.98336038 52.29052734 92.30371094 C52.29724457 93.03271606 52.30396179 93.76172119 52.31088257 94.51281738 C52.32986075 96.92007287 52.33378705 99.32704937 52.3359375 101.734375 C52.34236705 103.41343296 52.34909553 105.09248979 52.35610962 106.77154541 C52.36808299 110.29205927 52.37179053 113.81247503 52.37060547 117.33300781 C52.37040262 121.82982972 52.39766913 126.32601723 52.43214989 130.82268906 C52.45446417 134.2921229 52.45844158 137.76140539 52.45738602 141.23090363 C52.45973653 142.88780141 52.46852897 144.54470371 52.48405075 146.20153046 C52.63201868 163.63224681 52.63201868 163.63224681 46.25390625 171.0234375 C45.69574219 171.46945312 45.13757813 171.91546875 44.5625 172.375 C44.00691406 172.83648437 43.45132813 173.29796875 42.87890625 173.7734375 C38.75666592 176.46446341 35.13640153 177.25062087 30.25151062 177.26069641 C28.5294339 177.27132362 28.5294339 177.27132362 26.77256775 177.28216553 C25.52206131 177.27968811 24.27155487 177.27721069 22.9831543 177.2746582 C21.64565751 177.27900806 20.30816322 177.28419213 18.97067261 177.29014587 C15.34448597 177.30352 11.71840367 177.30411615 8.09219718 177.30158257 C5.06059141 177.30051144 2.02900662 177.30540004 -1.00259465 177.310188 C-8.15856545 177.32127843 -15.31448375 177.32172369 -22.47045898 177.31567383 C-29.84076179 177.30963829 -37.21087348 177.32193535 -44.58114368 177.3432439 C-50.91848441 177.36088913 -57.25576448 177.36685652 -63.59312886 177.36360615 C-67.37385357 177.36179726 -71.15444206 177.36438962 -74.93514442 177.37832069 C-78.49339912 177.39094155 -82.0513573 177.38891508 -85.6096077 177.37590981 C-87.52840709 177.372435 -89.44721571 177.38369158 -91.36598206 177.39547729 C-98.80477333 177.35036054 -105.28764129 177.09147641 -111.2421875 172.1328125 C-111.78101563 171.47023438 -112.31984375 170.80765625 -112.875 170.125 C-113.42929688 169.46757812 -113.98359375 168.81015625 -114.5546875 168.1328125 C-117.78823913 163.36113902 -118.26012564 159.30105583 -118.30639648 153.58276367 C-118.31472 152.85361252 -118.32304352 152.12446136 -118.33161926 151.37321472 C-118.35564235 148.97141114 -118.36448214 146.5698796 -118.37109375 144.16796875 C-118.38006645 142.49034039 -118.38918841 140.81271283 -118.39845276 139.13508606 C-118.41492477 135.62055521 -118.42263951 132.10611941 -118.42553711 128.59155273 C-118.43091689 124.1024828 -118.46858718 119.61431442 -118.51428127 115.12549877 C-118.54412134 111.66035249 -118.55126218 108.19542142 -118.55226326 104.73015785 C-118.55645235 103.07603136 -118.5688338 101.42190344 -118.58978081 99.76790428 C-118.78410436 83.09614576 -118.78410436 83.09614576 -113 77 C-108.1640614 72.1640614 -102.51030547 69.92784023 -95.73828125 69.921875 C-94.50464844 69.94765625 -93.27101562 69.9734375 -92 70 C-92.02094727 69.19481934 -92.04189453 68.38963867 -92.06347656 67.56005859 C-92.74215277 37.54796597 -92.74215277 37.54796597 -88 27 C-87.57589844 26.03835937 -87.15179688 25.07671875 -86.71484375 24.0859375 C-83.24246347 17.06379798 -78.50368135 11.52319795 -73 6 C-72.18789062 5.15308594 -72.18789062 5.15308594 -71.359375 4.2890625 C-51.64139034 -14.53265013 -22.09379076 -13.54388593 0 0 Z " fill="#0C4F6B" transform="translate(289,143)"/>
<path d="M0 0 C3.61415728 2.76061136 6.83411921 5.7401413 10 9 C10.56074219 9.54011719 11.12148438 10.08023438 11.69921875 10.63671875 C27.40536607 27.00244181 25 48.53762329 25 70 C-13.28 70 -51.56 70 -91 70 C-91 24.62397541 -91 24.62397541 -74.4375 6.8125 C-53.45920767 -13.15020178 -24.44116441 -14.98286765 0 0 Z " fill="#063C4E" transform="translate(289,143)"/>
<path d="M0 0 C5.45824854 4.00840127 9.88194969 8.99588828 12 15.46875 C12.22705078 18.69848633 12.22705078 18.69848633 12.1953125 22.30078125 C12.19031738 23.46585205 12.18532227 24.63092285 12.18017578 25.83129883 C12.16196777 27.29978271 12.14375977 28.7682666 12.125 30.28125 C12.08375 34.963125 12.0425 39.645 12 44.46875 C-5.16 44.46875 -22.32 44.46875 -40 44.46875 C-40.0825 39.84875 -40.165 35.22875 -40.25 30.46875 C-40.28641602 29.02757812 -40.32283203 27.58640625 -40.36035156 26.1015625 C-40.43635019 17.29552794 -39.69766477 11.6360645 -33.81640625 5.0078125 C-32.70072266 4.06035156 -32.70072266 4.06035156 -31.5625 3.09375 C-30.82128906 2.44664062 -30.08007812 1.79953125 -29.31640625 1.1328125 C-21.41634322 -4.54244357 -8.53832333 -4.52789874 0 0 Z " fill="#FBBE49" transform="translate(270,168.53125)"/>
</svg>
